<?xml version="1.0" standalone="no"?>
<!DOCTYPE svg PUBLIC "-//W3C//DTD SVG 20010904//EN"
 "http://www.w3.org/TR/2001/REC-SVG-20010904/DTD/svg10.dtd">
<svg version="1.0" xmlns="http://www.w3.org/2000/svg"
 width="85.000000pt" height="85.000000pt" viewBox="0 0 85.000000 85.000000"
 preserveAspectRatio="xMidYMid meet">
<metadata>
Created by potrace 1.11, written by Peter Selinger 2001-2013
</metadata>
<g transform="translate(0.000000,85.000000) scale(0.100000,-0.100000)"
fill="#000000" stroke="none">
<path d="M0 785 c0 -7 50 -55 59 -55 9 0 51 43 51 53 0 4 -25 7 -55 7 -30 0
-55 -2 -55 -5z"/>
<path d="M400 784 c0 -1 6 -7 14 -13 10 -8 16 -8 25 3 10 11 7 14 -14 12 -14
0 -25 -2 -25 -2z"/>
<path d="M741 771 c7 -10 21 -24 32 -30 16 -11 23 -9 43 10 13 12 24 26 24 31
0 4 -25 8 -55 8 -51 0 -54 -1 -44 -19z"/>
<path d="M319 686 l-74 -75 -62 62 c-35 34 -63 58 -63 55 0 -4 25 -31 55 -61
30 -30 55 -58 55 -63 0 -5 -32 -40 -70 -78 -39 -38 -69 -70 -67 -72 2 -2 36
30 77 71 70 70 75 74 92 58 10 -9 18 -11 18 -6 0 6 -8 14 -17 17 -13 6 -1 23
62 86 44 44 77 80 74 80 -3 0 -39 -33 -80 -74z"/>
<path d="M520 687 c70 -72 74 -79 61 -100 -13 -21 -12 -21 5 -5 16 16 21 13
92 -57 41 -41 77 -75 80 -75 7 0 -38 48 -101 109 l-49 45 67 64 c37 35 65 65
63 67 -2 3 -31 -22 -63 -55 -33 -33 -64 -60 -69 -60 -6 0 -44 33 -86 73 l-75
72 75 -78z"/>
<path d="M388 599 c-120 -19 -180 -161 -115 -271 96 -165 356 -76 334 115 -13
106 -109 175 -219 156z m121 -30 c57 -32 85 -80 85 -148 1 -64 -21 -103 -77
-143 -42 -30 -137 -31 -181 -3 -114 75 -97 266 29 307 43 13 108 8 144 -13z"/>
<path d="M51 440 c-17 -10 -7 -40 14 -40 8 0 15 9 15 19 0 24 -12 32 -29 21z
m19 -20 c0 -5 -2 -10 -4 -10 -3 0 -8 5 -11 10 -3 6 -1 10 4 10 6 0 11 -4 11
-10z"/>
<path d="M774 435 c-3 -8 -3 -19 1 -25 11 -17 35 -11 35 9 0 23 -29 36 -36 16z
m26 -15 c0 -5 -2 -10 -4 -10 -3 0 -8 5 -11 10 -3 6 -1 10 4 10 6 0 11 -4 11
-10z"/>
<path d="M157 309 l71 -74 -63 -64 c-36 -36 -63 -67 -61 -69 2 -2 32 26 67 63
l63 66 78 -78 c43 -43 78 -75 78 -72 0 4 -33 40 -74 81 l-74 75 21 22 c12 12
16 21 9 21 -6 0 -12 -4 -12 -9 0 -5 -7 -12 -17 -15 -11 -5 -31 9 -67 46 -28
29 -60 59 -71 67 -11 8 12 -19 52 -60z"/>
<path d="M683 314 c-64 -66 -80 -75 -89 -49 -4 8 -11 15 -17 15 -5 0 -3 -8 6
-18 10 -10 17 -21 17 -25 0 -3 -31 -38 -70 -77 -39 -39 -70 -74 -70 -78 0 -4
68 61 150 143 83 82 150 151 150 152 0 12 -24 -8 -77 -63z"/>
<path d="M680 163 c36 -37 66 -69 68 -72 1 -2 2 0 2 5 0 10 -118 134 -128 134
-3 0 23 -30 58 -67z"/>
<path d="M765 90 l-29 -30 52 0 c29 0 52 2 52 3 0 2 -10 16 -23 31 l-23 26
-29 -30z"/>
<path d="M35 97 c-29 -33 -27 -37 26 -37 l52 0 -23 25 c-26 27 -40 30 -55 12z"/>
<path d="M410 72 c0 -4 9 -8 20 -9 11 -1 18 2 15 8 -7 11 -35 12 -35 1z"/>
</g>
</svg>
